<?xml version="1.0" standalone="no"?>
<!DOCTYPE svg PUBLIC "-//W3C//DTD SVG 20010904//EN"
 "http://www.w3.org/TR/2001/REC-SVG-20010904/DTD/svg10.dtd">
<svg version="1.0" xmlns="http://www.w3.org/2000/svg"
 width="460.000000pt" height="460.000000pt" viewBox="0 0 460.000000 460.000000"
 preserveAspectRatio="xMidYMid meet">

<g transform="translate(0.000000,460.000000) scale(0.100000,-0.100000)"
fill="#000000" stroke="none">
<path d="M3120 4481 c-93 -30 -158 -69 -223 -134 -157 -156 -184 -388 -76
-640 30 -70 35 -87 21 -82 -112 44 -360 95 -465 95 l-69 0 4 200 c2 170 1 202
-12 210 -14 9 -47 5 -60 -7 -3 -3 -4 -92 -4 -198 l1 -193 -30 -6 c-16 -3 -46
-6 -66 -6 -91 0 -305 -54 -456 -115 -138 -56 -288 -149 -417 -259 -69 -59 -77
-63 -83 -45 -4 11 -49 63 -101 117 -51 53 -94 100 -94 104 0 3 -17 16 -38 29
-54 33 -82 60 -97 96 -7 17 -26 38 -42 46 -15 8 -40 29 -56 46 -31 35 -39 37
-61 15 -23 -22 -20 -51 7 -65 58 -30 197 -160 197 -185 0 -6 21 -32 47 -57 27
-24 83 -80 126 -124 l77 -79 -36 -39 c-104 -114 -221 -300 -283 -450 -67 -161
-91 -250 -128 -490 l-8 -50 -135 2 c-74 1 -142 3 -150 4 -27 2 -83 -10 -92
-19 -5 -5 -8 -20 -6 -33 l3 -24 191 -3 191 -2 6 -93 c19 -276 111 -540 268
-773 27 -40 49 -78 49 -84 0 -5 3 -9 8 -7 4 1 33 -26 65 -61 l58 -63 -33 -42
c-18 -23 -72 -82 -119 -132 -75 -79 -129 -145 -129 -157 0 -2 18 -4 40 -5 37
-2 43 2 91 60 28 34 85 97 126 141 l75 78 22 -25 c11 -13 49 -47 83 -75 34
-27 59 -53 55 -58 -4 -4 -1 -4 5 0 7 4 23 -2 35 -14 13 -12 33 -26 46 -31 14
-5 20 -14 16 -21 -4 -7 -3 -8 4 -4 10 6 49 -10 62 -25 3 -3 22 -14 42 -24 21
-9 35 -21 32 -26 -3 -5 2 -6 10 -3 9 3 16 1 16 -5 0 -6 3 -10 8 -8 6 2 114
-37 182 -66 14 -6 29 -10 33 -8 5 1 24 -8 43 -20 23 -14 43 -19 61 -15 16 3
42 2 58 -4 28 -9 28 -10 -10 -5 l-40 4 33 -11 c17 -6 32 -15 32 -19 0 -5 14
-9 31 -9 16 0 28 -4 24 -9 -3 -6 11 -13 32 -16 21 -3 46 -8 56 -10 9 -2 17 1
17 7 0 5 5 6 11 2 6 -3 15 0 20 7 5 9 9 -35 10 -111 1 -69 4 -154 8 -190 6
-61 8 -65 33 -68 23 -3 28 2 37 33 5 20 7 51 4 70 -3 19 -2 95 2 170 l7 135
43 0 c67 0 272 38 360 67 182 60 459 218 577 330 14 14 31 24 36 22 5 -2 28
-26 52 -54 23 -27 74 -84 114 -125 39 -41 92 -100 116 -130 53 -65 70 -79 91
-80 24 0 45 29 33 45 -32 43 -106 130 -163 191 -36 39 -91 99 -123 135 -31 35
-59 67 -62 70 -4 3 24 41 60 85 36 43 78 97 93 119 14 22 29 42 34 43 4 2 7
10 7 17 0 8 6 20 14 28 13 12 47 71 84 144 40 77 98 257 112 347 5 33 16 95
25 136 8 41 15 103 15 138 l0 63 190 -1 c104 -1 194 1 200 5 5 3 10 19 10 35
l0 30 -202 2 -203 3 -7 75 c-28 309 -163 616 -394 893 l-32 38 74 112 c41 62
82 123 91 136 32 47 124 244 148 318 47 142 43 293 -10 409 -29 62 -108 164
-159 202 -116 89 -298 124 -426 83z m241 -91 c204 -62 310 -220 297 -441 -3
-46 -13 -106 -23 -134 -44 -129 -224 -439 -318 -549 -28 -34 -53 -63 -54 -65
-12 -17 -197 242 -288 404 -132 234 -162 378 -113 543 17 60 31 83 72 126 112
117 279 162 427 116z m-1311 -764 c0 -2 -28 -23 -62 -47 -180 -122 -339 -293
-457 -489 l-47 -79 -50 33 c-64 43 -88 50 -103 32 -21 -25 -3 -52 59 -93 57
-36 71 -55 51 -67 -13 -9 -100 -219 -131 -321 -16 -49 -39 -156 -51 -237 l-24
-148 -221 0 -222 0 5 43 c23 202 39 275 100 432 63 163 156 321 254 433 l29
33 23 -22 c12 -11 36 -32 54 -46 27 -21 34 -22 52 -11 30 19 26 32 -24 85
l-44 48 22 23 c38 41 199 166 262 204 129 77 312 146 523 197 1 1 2 -1 2 -3z
m641 -47 c226 -75 234 -80 313 -196 96 -141 112 -161 161 -215 25 -27 45 -52
45 -57 0 -15 -93 -91 -112 -91 -4 0 -19 21 -34 48 -114 199 -306 400 -501 525
-42 27 -52 37 -34 37 5 0 78 -23 162 -51z m-552 -40 c-69 -141 -150 -379 -192
-559 l-24 -105 -65 3 c-55 3 -66 1 -72 -14 -3 -9 -5 -18 -4 -19 13 -10 69 -34
96 -40 37 -8 38 -10 17 -118 -8 -43 -20 -145 -25 -225 -6 -81 -13 -171 -16
-199 l-5 -53 -271 0 -270 0 6 28 c3 15 8 54 11 87 14 141 54 284 124 448 23
54 46 109 51 121 l8 23 79 -27 c43 -15 91 -33 107 -39 33 -13 62 -7 70 15 8
20 -40 47 -136 80 -45 14 -78 31 -78 39 0 34 172 269 255 349 96 92 338 266
352 252 2 -1 -7 -22 -18 -47z m328 19 c76 -45 209 -143 271 -202 76 -72 193
-216 247 -304 45 -74 44 -77 -50 -114 -44 -18 -60 -29 -60 -44 0 -30 46 -29
115 2 63 28 68 27 87 -17 11 -27 11 -27 -110 -88 -67 -33 -157 -84 -200 -112
-43 -28 -80 -49 -83 -46 -6 5 -24 114 -24 142 0 16 13 24 68 39 88 25 102 33
102 56 0 18 -5 20 -42 14 -24 -3 -64 -12 -90 -19 -26 -8 -50 -10 -52 -6 -3 4
-10 37 -15 73 -27 165 -130 467 -219 641 -7 13 17 7 55 -15z m-225 -123 c-5
-166 -1 -187 36 -183 l27 3 3 158 c1 86 6 157 11 157 12 0 108 -207 142 -307
35 -103 94 -320 104 -380 l6 -41 -38 -6 c-21 -3 -80 -8 -130 -12 l-93 -6 0 71
c0 57 -3 73 -16 78 -34 13 -49 -11 -52 -82 l-3 -67 -112 7 c-62 4 -115 9 -119
12 -5 2 -8 15 -8 28 0 51 66 300 112 425 32 86 120 280 127 280 4 0 5 -61 3
-135z m1157 -348 c19 -28 44 -62 55 -75 12 -13 16 -26 10 -31 -7 -6 -220 -79
-291 -99 -7 -2 -21 15 -32 36 l-21 40 73 45 c39 25 92 66 117 91 24 25 47 46
50 46 3 0 20 -24 39 -53z m158 -234 c41 -67 76 -134 72 -137 -2 -2 -19 -11
-37 -20 -25 -13 -32 -23 -30 -39 2 -18 11 -23 53 -27 l50 -5 22 -85 c12 -47
24 -92 25 -100 2 -11 -11 -17 -47 -23 -105 -18 -292 -69 -371 -101 -139 -57
-309 -182 -428 -315 -74 -83 -88 -100 -128 -163 -39 -61 -50 -70 -118 -103
-86 -41 -185 -97 -248 -139 -23 -16 -45 -27 -48 -24 -3 3 15 54 40 112 26 59
46 111 46 116 0 5 18 39 40 75 22 36 40 71 40 77 0 16 -31 48 -46 48 -29 0
-70 -81 -135 -268 -16 -45 -36 -93 -44 -106 -13 -20 -19 -46 -24 -108 -1 -3
-34 -23 -73 -43 -40 -21 -80 -43 -88 -50 -8 -7 -30 -20 -47 -29 l-33 -17 0 29
c0 38 45 237 75 333 74 236 256 492 494 693 215 182 348 261 599 358 141 54
301 104 343 107 10 1 29 -19 46 -46z m-1409 -89 l92 -7 0 -279 0 -279 -97 1
c-54 1 -126 4 -161 7 l-63 6 6 91 c8 121 23 264 36 356 19 131 15 123 57 116
20 -3 79 -9 130 -12z m440 -48 c7 -35 12 -83 12 -108 0 -44 -2 -47 -87 -124
-49 -43 -114 -105 -145 -136 l-58 -58 0 240 0 239 98 4 c53 1 113 4 133 5 l36
2 11 -64z m1135 -370 c3 -8 9 -42 13 -75 l7 -61 -174 0 c-96 0 -212 -3 -259
-7 l-85 -6 18 21 c35 39 220 102 372 127 107 17 102 17 108 1z m-2480 -318 c8
-139 39 -325 72 -438 14 -47 59 -152 100 -235 41 -82 75 -153 75 -157 0 -15
-30 -8 -30 7 0 15 -48 87 -109 163 -41 52 -138 122 -212 156 -30 14 -90 30
-134 36 -44 7 -85 14 -90 15 -13 3 -57 130 -84 240 -22 90 -46 299 -36 315 4
6 85 10 224 10 l218 0 6 -112z m616 -80 c0 -264 20 -395 57 -381 14 5 15 0 10
-48 -14 -107 -28 -164 -48 -186 -20 -22 -138 -73 -239 -103 l-56 -17 -41 61
c-123 183 -204 456 -219 739 l-6 127 271 0 271 0 0 -192z m331 186 c0 -3 -9
-18 -19 -33 -56 -78 -166 -319 -209 -457 l-19 -59 -6 170 c-4 94 -10 218 -13
278 l-5 107 135 0 c75 0 136 -3 136 -6z m1546 -76 l2 -77 -143 6 c-211 9 -437
-26 -640 -98 -61 -22 -65 -23 -80 -6 -8 9 -12 15 -9 12 4 -2 19 15 34 38 33
52 157 168 202 190 29 15 72 16 333 14 l300 -2 1 -77z m-83 -153 c38 -4 60
-12 64 -21 5 -14 -17 -129 -39 -201 l-10 -33 -132 0 c-277 0 -565 -85 -923
-273 l-33 -17 16 -34 16 -33 157 79 c265 131 519 201 743 202 64 1 119 -1 122
-4 6 -6 -32 -84 -94 -192 l-41 -73 -97 -3 c-176 -4 -348 -48 -535 -135 -100
-47 -330 -181 -432 -252 -71 -49 -262 -165 -273 -165 -4 0 -39 -18 -77 -41
-59 -34 -76 -40 -108 -35 -103 17 -422 148 -386 160 8 2 46 10 84 16 190 33
510 163 690 282 39 26 82 52 98 59 15 7 26 15 24 18 -1 3 -9 18 -16 33 l-14
27 -51 -28 c-28 -16 -100 -57 -160 -90 -60 -34 -155 -80 -210 -103 -56 -22
-121 -48 -146 -58 -71 -28 -268 -77 -343 -85 l-68 -7 -69 46 c-37 25 -90 66
-116 90 l-48 43 79 8 c44 4 109 13 145 21 36 8 90 19 120 25 30 6 75 19 100
29 25 10 83 32 130 50 106 40 264 122 440 230 120 74 185 113 285 172 68 41
304 152 370 175 212 74 371 111 515 122 94 8 112 7 223 -4z m-2594 -441 c75
-19 154 -60 192 -101 44 -47 120 -186 106 -195 -7 -4 -49 -8 -94 -8 l-82 0
-52 63 c-49 58 -154 212 -166 243 -7 18 15 18 96 -2z m2290 -334 c-165 -181
-358 -312 -594 -402 -50 -19 -119 -40 -155 -47 -36 -7 -85 -16 -110 -21 -25
-5 -73 -11 -107 -14 -59 -5 -63 -4 -63 16 0 21 50 90 100 137 100 95 438 288
620 354 92 34 247 66 318 66 l74 1 -83 -90z m-1119 -466 c0 -9 -11 -14 -32
-14 l-33 1 24 19 c24 21 41 19 41 -6z"/>
<path d="M3145 4201 c-107 -62 -150 -177 -108 -283 48 -122 159 -180 275 -143
63 20 82 34 128 100 33 47 35 55 35 127 0 69 -3 80 -30 119 -50 71 -104 103
-183 107 -59 3 -73 0 -117 -27z m155 -106 c75 -39 81 -157 10 -198 -65 -39
-148 -7 -169 63 -31 103 65 184 159 135z"/>
<path d="M1072 2668 c-21 -21 -15 -75 10 -92 30 -21 44 -20 68 4 22 22 27 69
8 88 -7 7 -26 12 -43 12 -17 0 -36 -5 -43 -12z"/>
<path d="M2249 3177 c-54 -28 -44 -106 16 -121 51 -13 104 51 78 93 -17 27
-66 41 -94 28z"/>
<path d="M3286 2630 c-69 -22 -91 -40 -82 -68 10 -30 28 -32 97 -11 77 24 91
35 87 68 -4 33 -25 35 -102 11z"/>
<path d="M2947 2469 c-32 -22 -57 -46 -57 -52 0 -17 29 -57 41 -57 5 0 34 18
64 40 60 44 72 80 36 100 -26 13 -20 15 -84 -31z"/>
<path d="M2631 2229 c-28 -29 -51 -57 -51 -64 0 -16 33 -45 52 -45 19 0 108
94 108 114 0 63 -44 61 -109 -5z"/>
<path d="M1022 1998 c-17 -17 -15 -65 4 -72 31 -12 63 -6 74 15 24 43 -43 92
-78 57z"/>
<path d="M1028 1769 c-21 -12 -24 -69 -6 -87 16 -16 63 -15 76 1 48 57 -6 124
-70 86z"/>
<path d="M1568 2009 c-32 -18 -41 -48 -23 -75 19 -30 57 -32 85 -4 25 25 25
31 -1 64 -22 28 -34 31 -61 15z"/>
<path d="M1556 1755 c-20 -21 -20 -44 0 -73 37 -53 110 -7 88 56 -11 33 -62
43 -88 17z"/>
<path d="M2242 4288 c-17 -17 -15 -42 7 -69 18 -22 19 -22 45 -6 43 28 30 87
-19 87 -12 0 -26 -5 -33 -12z"/>
<path d="M3875 3630 c-10 -16 14 -50 30 -44 23 9 19 54 -4 54 -11 0 -23 -4
-26 -10z"/>
<path d="M4092 3444 c-35 -18 -62 -59 -62 -95 0 -33 45 -86 85 -99 78 -26 147
49 124 134 -17 61 -87 90 -147 60z"/>
<path d="M93 2218 c-21 -27 -23 -51 -8 -74 18 -28 56 -32 79 -8 19 18 21 65 4
82 -16 16 -63 15 -75 0z"/>
<path d="M648 2223 c7 -3 16 -2 19 1 4 3 -2 6 -13 5 -11 0 -14 -3 -6 -6z"/>
<path d="M4380 2210 c-15 -28 -9 -71 11 -83 26 -16 69 16 69 51 0 16 -5 33
-12 40 -19 19 -56 14 -68 -8z"/>
<path d="M3854 1475 c-9 -22 9 -37 37 -33 16 2 24 10 24 23 0 26 -52 35 -61
10z"/>
<path d="M804 680 c-31 -12 -67 -66 -59 -89 14 -44 77 -22 101 35 22 53 6 74
-42 54z"/>
<path d="M687 543 c-14 -13 -6 -41 13 -46 27 -7 47 18 30 38 -13 16 -32 19
-43 8z"/>
<path d="M1027 355 c-10 -7 -21 -31 -24 -53 -7 -55 21 -84 80 -80 37 3 43 7
55 39 12 31 11 41 -2 72 -14 34 -19 37 -53 37 -21 0 -46 -7 -56 -15z"/>
<path d="M2253 93 c-14 -5 -17 -50 -7 -77 4 -9 18 -16 34 -16 23 0 30 5 35 29
11 52 -19 82 -62 64z"/>
</g>
</svg>
